<svg width="27" height="27" viewBox="0 0 27 27" fill="none" xmlns="http://www.w3.org/2000/svg">
<path d="M19.8817 7.03647H17.8362C17.8362 4.77624 16.0055 2.94556 13.7453 2.94556C11.4851 2.94556 9.65439 4.77624 9.65439 7.03647H7.60893C6.48393 7.03647 5.56348 7.95692 5.56348 9.08192V21.3546C5.56348 22.4796 6.48393 23.4001 7.60893 23.4001H19.8817C21.0067 23.4001 21.9271 22.4796 21.9271 21.3546V9.08192C21.9271 7.95692 21.0067 7.03647 19.8817 7.03647ZM13.7453 4.99101C14.8703 4.99101 15.7907 5.91147 15.7907 7.03647H11.6998C11.6998 5.91147 12.6203 4.99101 13.7453 4.99101ZM19.8817 21.3546H7.60893V9.08192H9.65439V11.1274C9.65439 11.6899 10.1146 12.1501 10.6771 12.1501C11.2396 12.1501 11.6998 11.6899 11.6998 11.1274V9.08192H15.7907V11.1274C15.7907 11.6899 16.251 12.1501 16.8135 12.1501C17.376 12.1501 17.8362 11.6899 17.8362 11.1274V9.08192H19.8817V21.3546Z" fill="white"/>
<path d="M4.18182 0.209091H26.7909V22.8182C26.7909 25.0123 25.0123 26.7909 22.8182 26.7909H0.209091V4.18182C0.209091 1.98774 1.98774 0.209091 4.18182 0.209091Z" stroke="url(#paint0_linear_41_924)" stroke-width="0.418182"/>
<defs>
<linearGradient id="paint0_linear_41_924" x1="13.5" y1="0" x2="13.5" y2="27" gradientUnits="userSpaceOnUse">
<stop stop-color="#FF2828" stop-opacity="0.78"/>
<stop offset="0.333333" stop-color="#C90303" stop-opacity="0.41"/>
<stop offset="0.682292" stop-color="#9F1515" stop-opacity="0.6"/>
<stop offset="1" stop-color="#7E0303" stop-opacity="0.71"/>
</linearGradient>
</defs>
</svg>
